<svg width="276" height="84" viewBox="0 0 276 84" fill="none" xmlns="http://www.w3.org/2000/svg">
<path d="M45.3936 45.6839C45.2223 56.8009 45.3936 70.8708 45.3936 70.8708L36.4193 65.5319L36.3663 65.5032L28.3547 60.8174L35.6647 56.5669L35.7299 56.5997C35.7299 54.879 35.7299 53.0145 35.7299 51.1213L23.321 58.1028L14.416 52.8625L35.6932 40.92L45.6139 35.3553L46.8377 34.6777H64.9372L45.3936 45.6839Z" fill="#042523"/>
<path d="M91.6478 11.5279L75.2045 21.187C75.2045 21.187 68.2943 21.2815 64.0111 21.2815C54.6003 21.0227 49.1954 25.5114 46.8416 30.9858L35.7013 37.2404C36.358 23.2034 45.8993 10.957 65.3817 11.5484C76.6893 11.5484 91.6478 11.5279 91.6478 11.5279Z" fill="#042523"/>
<path d="M106.08 27.1457V32.5666H113.166V33.8274H106.08V39.6836H104.632V25.8726H114.014V27.1457H106.08Z" fill="#042523"/>
<path d="M125.199 29.766C125.942 29.3902 126.767 29.208 127.598 29.2362V30.5956H127.263C126.792 30.5704 126.321 30.6472 125.882 30.8207C125.443 30.9943 125.046 31.2606 124.718 31.6017C124.066 32.3882 123.737 33.3963 123.8 34.419V39.6839H122.409V29.3143H123.739V31.343C124.044 30.6728 124.557 30.1197 125.199 29.766Z" fill="#042523"/>
<path d="M144.849 34.9321H136.246C136.265 35.4279 136.384 35.9146 136.594 36.3634C136.804 36.8121 137.102 37.2136 137.47 37.544C138.251 38.2221 139.258 38.5772 140.288 38.5379C140.893 38.5449 141.493 38.4275 142.051 38.1929C142.585 37.9656 143.061 37.6187 143.442 37.1785L144.225 38.0861C143.764 38.6405 143.176 39.0733 142.512 39.3469C141.698 39.6717 140.824 39.8177 139.95 39.7752C139.076 39.7327 138.22 39.5027 137.441 39.1005C136.643 38.6652 135.982 38.0137 135.532 37.2196C135.066 36.3897 134.828 35.4499 134.843 34.4968C134.828 33.549 135.054 32.6132 135.499 31.7781C135.916 30.9973 136.54 30.3488 137.302 29.9054C138.085 29.4531 138.974 29.2219 139.876 29.236C140.775 29.2212 141.66 29.4526 142.438 29.9054C143.192 30.3473 143.809 30.9913 144.221 31.7658C144.664 32.606 144.887 33.5458 144.869 34.4968L144.849 34.9321ZM137.38 31.3921C136.703 32.0493 136.298 32.9397 136.246 33.8849H143.548C143.492 32.938 143.083 32.0474 142.402 31.3921C141.71 30.7777 140.819 30.4386 139.897 30.4386C138.975 30.4386 138.084 30.7777 137.392 31.3921H137.38ZM141.284 25.2524H143.144L139.974 27.696H138.604L141.284 25.2524Z" fill="#042523"/>
<path d="M162.981 29.3144V43.5074H161.59V37.7292C161.184 38.3789 160.612 38.9066 159.934 39.2569C159.234 39.6134 158.459 39.7938 157.674 39.7826C156.754 39.7962 155.845 39.5683 155.039 39.1214C154.267 38.6846 153.633 38.0387 153.207 37.2569C152.77 36.4072 152.542 35.4643 152.542 34.5074C152.542 33.5506 152.77 32.6077 153.207 31.7579C153.636 30.9747 154.275 30.3286 155.051 29.8935C155.854 29.45 156.758 29.2236 157.674 29.2364C158.481 29.2244 159.278 29.4134 159.995 29.7867C160.669 30.1558 161.233 30.7004 161.627 31.3637V29.3103L162.981 29.3144ZM159.718 38.0372C160.315 37.7078 160.805 37.2115 161.129 36.608C161.464 35.9565 161.629 35.2304 161.611 34.4972C161.631 33.7677 161.465 33.0453 161.129 32.3986C160.814 31.8025 160.339 31.3074 159.759 30.9694C159.168 30.6248 158.496 30.4474 157.813 30.4561C157.117 30.4428 156.43 30.6203 155.826 30.9694C155.247 31.3098 154.773 31.8043 154.456 32.3986C154.115 33.0441 153.942 33.7662 153.954 34.4972C153.942 35.2316 154.113 35.9574 154.452 36.608C154.768 37.2045 155.244 37.6997 155.826 38.0372C156.428 38.3758 157.107 38.5487 157.796 38.5382C158.476 38.5463 159.146 38.3735 159.738 38.0372H159.718Z" fill="#042523"/>
<path d="M182.011 29.314V39.6836H180.681V37.7821C180.324 38.4034 179.801 38.9113 179.172 39.2483C178.497 39.6064 177.744 39.7872 176.981 39.7739C176.403 39.8062 175.824 39.7226 175.277 39.528C174.731 39.3335 174.229 39.0318 173.799 38.6405C173.019 37.8848 172.63 36.7773 172.633 35.3181V29.314H174.024V35.1867C174.024 36.2791 174.289 37.1086 174.839 37.6507C175.141 37.945 175.5 38.1724 175.895 38.3181C176.289 38.4638 176.709 38.5247 177.128 38.4967C177.601 38.5222 178.074 38.4469 178.516 38.2756C178.958 38.1043 179.36 37.841 179.694 37.5029C180.356 36.7407 180.694 35.746 180.632 34.7349V29.314H182.011Z" fill="#042523"/>
<path d="M200.751 34.9321H192.131C192.151 35.4279 192.269 35.9146 192.479 36.3634C192.689 36.8121 192.987 37.2136 193.355 37.544C194.136 38.2221 195.143 38.5772 196.174 38.5379C196.778 38.5449 197.378 38.4275 197.936 38.1929C198.47 37.9656 198.946 37.6187 199.327 37.1785L200.11 38.0861C199.65 38.6405 199.061 39.0733 198.397 39.3469C197.583 39.6717 196.71 39.8177 195.835 39.7752C194.961 39.7327 194.105 39.5027 193.326 39.1005C192.528 38.6652 191.867 38.0137 191.417 37.2196C190.957 36.3881 190.725 35.4484 190.744 34.4968C190.728 33.5488 190.954 32.6125 191.401 31.7781C191.817 30.9985 192.44 30.3503 193.2 29.9054C193.984 29.4536 194.875 29.2224 195.778 29.236C196.676 29.2212 197.562 29.4526 198.34 29.9054C199.094 30.3473 199.711 30.9914 200.122 31.7658C200.565 32.606 200.788 33.5458 200.771 34.4968L200.751 34.9321ZM193.282 31.3921C192.599 32.0467 192.188 32.9374 192.131 33.8849H199.433C199.378 32.938 198.968 32.0474 198.287 31.3921C197.595 30.7777 196.705 30.4386 195.782 30.4386C194.86 30.4386 193.969 30.7777 193.277 31.3921H193.282Z" fill="#042523"/>
<path d="M217.83 30.39C218.595 31.1457 218.977 32.2408 218.977 33.6754V39.6837H217.586V33.8069C217.643 32.9098 217.351 32.0256 216.77 31.3428C216.467 31.049 216.107 30.8221 215.712 30.6764C215.317 30.5307 214.897 30.4696 214.477 30.4968C213.994 30.4717 213.512 30.547 213.059 30.718C212.606 30.8889 212.193 31.152 211.846 31.4906C211.51 31.8609 211.251 32.295 211.084 32.7676C210.918 33.2401 210.847 33.7415 210.875 34.2422V39.6837H209.484V29.3141H210.818V31.2114C211.194 30.5813 211.74 30.0716 212.393 29.7412C213.12 29.3801 213.923 29.2012 214.734 29.2196C215.302 29.1939 215.869 29.2844 216.401 29.4856C216.933 29.6867 217.42 29.9944 217.83 30.39Z" fill="#042523"/>
<path d="M230.186 39.1131C229.394 38.6743 228.74 38.0214 228.298 37.2281C227.837 36.3936 227.603 35.4515 227.62 34.4971C227.605 33.5457 227.842 32.6074 228.306 31.7784C228.751 30.9904 229.405 30.3421 230.194 29.9057C231.033 29.4497 231.974 29.2192 232.928 29.2363C233.75 29.2208 234.564 29.3994 235.306 29.7578C235.992 30.0969 236.567 30.6271 236.962 31.2856L235.922 31.996C235.604 31.5005 235.159 31.1014 234.633 30.842C234.101 30.5826 233.518 30.4505 232.928 30.456C232.226 30.4455 231.534 30.6196 230.921 30.9611C230.329 31.2912 229.845 31.7879 229.53 32.3903C229.202 33.0459 229.032 33.7695 229.032 34.5032C229.032 35.237 229.202 35.9605 229.53 36.6162C229.849 37.2136 230.332 37.7066 230.921 38.0371C231.534 38.3742 232.224 38.5467 232.923 38.5381C233.512 38.5437 234.095 38.416 234.629 38.1644C235.154 37.9098 235.6 37.5149 235.918 37.0227L236.958 37.7291C236.564 38.3916 235.985 38.9228 235.293 39.2568C234.554 39.6141 233.743 39.7941 232.923 39.7825C231.969 39.7983 231.027 39.5678 230.186 39.1131Z" fill="#042523"/>
<path d="M254.339 34.9323H245.724C245.743 35.4281 245.862 35.9148 246.072 36.3636C246.282 36.8123 246.58 37.2138 246.948 37.5442C247.729 38.2223 248.736 38.5774 249.767 38.5381C250.371 38.5448 250.971 38.4274 251.529 38.1931C252.062 37.9648 252.538 37.6181 252.92 37.1787L253.727 38.0863C253.266 38.6399 252.678 39.0725 252.014 39.3471C251.296 39.6444 250.526 39.7925 249.75 39.7824C248.771 39.8016 247.803 39.5669 246.94 39.1007C246.141 38.6654 245.48 38.0139 245.031 37.2198C244.566 36.3895 244.33 35.4497 244.345 34.497C244.33 33.5492 244.557 32.6134 245.002 31.7783C245.416 31 246.036 30.352 246.793 29.9056C247.579 29.467 248.464 29.2368 249.363 29.2368C250.262 29.2368 251.146 29.467 251.933 29.9056C252.689 30.3481 253.31 30.9917 253.727 31.766C254.163 32.6084 254.38 33.5476 254.36 34.497L254.339 34.9323ZM246.87 31.3923C246.191 32.0488 245.782 32.9387 245.724 33.8851H253.03C252.972 32.9387 252.563 32.0488 251.884 31.3923C251.191 30.7784 250.3 30.4398 249.377 30.4398C248.454 30.4398 247.563 30.7784 246.87 31.3923Z" fill="#042523"/>
<path d="M106.749 55.7207V59.4168H111.314V59.9588H106.749V63.7658H106.125V55.1416H111.836V55.7083L106.749 55.7207Z" fill="#042523"/>
<path d="M128.324 63.2113V63.778H122.413V55.1538H128.124V55.7205H123.037V59.1374H127.602V59.6918H123.037V63.2277L128.324 63.2113Z" fill="#042523"/>
<path d="M147.26 63.778V56.3858L143.674 62.6199H143.368L139.783 56.4105V63.778H139.171V55.1538H139.697L143.527 61.8191L147.358 55.1538H147.872V63.778H147.26Z" fill="#042523"/>
<path d="M167.534 63.778V56.3858L163.948 62.6199H163.642L160.056 56.4105V63.778H159.444V55.1538H159.971L163.801 61.8191L167.631 55.1538H168.145V63.778H167.534Z" fill="#042523"/>
<path d="M185.604 63.2113V63.778H179.698V55.1538H185.409V55.7205H180.322V59.1374H184.887V59.6918H180.322V63.2277L185.604 63.2113Z" fill="#042523"/>
</svg>
