<svg width="148" height="45" viewBox="0 0 148 45" fill="none" xmlns="http://www.w3.org/2000/svg">
<path d="M24.3415 24.4735C24.2497 30.429 24.3415 37.9664 24.3415 37.9664L19.5292 35.1063L19.5008 35.0909L15.2047 32.5807L19.1246 30.3036L19.1596 30.3212C19.1596 29.3994 19.1596 28.4006 19.1596 27.3863L12.5055 31.1264L7.73035 28.3192L19.1399 21.9214L24.4596 18.9403L25.1159 18.5773H34.8214L24.3415 24.4735Z" fill="white"/>
<path d="M49.1445 6.17556L40.327 11.3501C40.327 11.3501 36.6216 11.4007 34.3248 11.4007C29.2784 11.2621 26.3801 13.6668 25.118 16.5994L19.1442 19.9501C19.4963 12.4303 24.6127 5.86976 35.0597 6.18656C41.1232 6.18656 49.1445 6.17556 49.1445 6.17556Z" fill="white"/>
<path d="M56.8836 14.5424V17.4465H60.6831V18.1219H56.8836V21.2592H56.1071V13.8604H61.1381V14.5424H56.8836Z" fill="white"/>
<path d="M67.136 15.946C67.5343 15.7447 67.9766 15.6471 68.4222 15.6622V16.3904H68.2428C67.9902 16.3769 67.7377 16.4181 67.5022 16.5111C67.2667 16.604 67.0538 16.7467 66.8778 16.9294C66.528 17.3508 66.3519 17.8908 66.3857 18.4387V21.2592H65.6398V15.704H66.3529V16.7908C66.5167 16.4318 66.7913 16.1355 67.136 15.946Z" fill="white"/>
<path d="M77.6727 18.7137H73.0595C73.0699 18.9793 73.1333 19.2401 73.2461 19.4804C73.3588 19.7208 73.5185 19.9359 73.7157 20.1129C74.1345 20.4762 74.6746 20.6664 75.2272 20.6453C75.5514 20.6491 75.873 20.5862 76.1722 20.4605C76.4586 20.3388 76.7137 20.153 76.9181 19.9171L77.338 20.4033C77.091 20.7003 76.7757 20.9322 76.4193 21.0788C75.9829 21.2528 75.5146 21.331 75.0457 21.3082C74.5768 21.2855 74.1181 21.1622 73.7004 20.9468C73.2723 20.7136 72.9177 20.3645 72.6767 19.9391C72.4269 19.4946 72.2993 18.9911 72.307 18.4805C72.2991 17.9728 72.4203 17.4714 72.6592 17.0241C72.8825 16.6058 73.2173 16.2584 73.626 16.0208C74.0456 15.7785 74.5225 15.6546 75.0063 15.6622C75.488 15.6543 75.9628 15.7783 76.38 16.0208C76.7843 16.2575 77.1152 16.6026 77.3359 17.0175C77.5733 17.4676 77.693 17.971 77.6837 18.4805L77.6727 18.7137ZM73.6676 16.8172C73.3047 17.1693 73.0875 17.6463 73.0595 18.1527H76.9749C76.9452 17.6454 76.7256 17.1683 76.3603 16.8172C75.9894 16.4881 75.5118 16.3065 75.0172 16.3065C74.5226 16.3065 74.045 16.4881 73.6741 16.8172H73.6676ZM75.7609 13.5282H76.7584L75.0588 14.8372H74.3238L75.7609 13.5282Z" fill="white"/>
<path d="M87.3957 15.704V23.3074H86.6498V20.2119C86.4321 20.56 86.1254 20.8427 85.7617 21.0304C85.3863 21.2213 84.9705 21.318 84.5498 21.312C84.0562 21.3193 83.5693 21.1972 83.1368 20.9578C82.723 20.7238 82.3827 20.3777 82.1546 19.9589C81.9203 19.5037 81.798 18.9986 81.798 18.486C81.798 17.9734 81.9203 17.4683 82.1546 17.0131C82.3845 16.5934 82.7272 16.2473 83.1434 16.0142C83.5741 15.7767 84.0587 15.6554 84.5498 15.6622C84.9825 15.6558 85.4101 15.7571 85.7945 15.957C86.1561 16.1548 86.4582 16.4465 86.6694 16.8019V15.7018L87.3957 15.704ZM85.6457 20.3769C85.9661 20.2005 86.229 19.9346 86.4026 19.6113C86.582 19.2623 86.6708 18.8733 86.6607 18.4805C86.6715 18.0897 86.5826 17.7027 86.4026 17.3563C86.2336 17.0369 85.979 16.7717 85.6676 16.5906C85.3508 16.406 84.9903 16.311 84.6242 16.3156C84.2509 16.3085 83.8827 16.4036 83.559 16.5906C83.2486 16.773 82.9943 17.0379 82.824 17.3563C82.6412 17.7021 82.5486 18.0889 82.5549 18.4805C82.5484 18.874 82.6402 19.2628 82.8218 19.6113C82.9915 19.9309 83.2469 20.1961 83.559 20.3769C83.8815 20.5584 84.2459 20.6509 84.6155 20.6454C84.98 20.6497 85.3392 20.5571 85.6567 20.3769H85.6457Z" fill="white"/>
<path d="M97.5999 15.704V21.2592H96.8868V20.2405C96.6954 20.5733 96.415 20.8455 96.0775 21.026C95.7157 21.2178 95.3117 21.3147 94.9028 21.3076C94.5926 21.3248 94.2821 21.2801 93.9893 21.1758C93.6964 21.0716 93.427 20.91 93.1966 20.7003C92.7781 20.2955 92.5696 19.7023 92.5711 18.9205V15.704H93.317V18.8501C93.317 19.4353 93.4591 19.8797 93.7544 20.1701C93.9161 20.3278 94.1088 20.4496 94.3202 20.5277C94.5316 20.6057 94.7569 20.6383 94.9816 20.6233C95.2352 20.637 95.4889 20.5966 95.726 20.5049C95.9631 20.4131 96.1783 20.2721 96.3575 20.0909C96.7129 19.6826 96.8937 19.1497 96.8606 18.6081V15.704H97.5999Z" fill="white"/>
<path d="M107.649 18.7137H103.027C103.037 18.9793 103.101 19.2401 103.214 19.4805C103.326 19.7208 103.486 19.9359 103.683 20.1129C104.102 20.4762 104.642 20.6664 105.195 20.6454C105.519 20.6491 105.84 20.5863 106.14 20.4605C106.426 20.3388 106.681 20.153 106.886 19.9171L107.305 20.4033C107.058 20.7004 106.743 20.9322 106.387 21.0788C105.95 21.2528 105.482 21.331 105.013 21.3082C104.544 21.2855 104.086 21.1622 103.668 20.9468C103.24 20.7136 102.885 20.3645 102.644 19.9391C102.397 19.4937 102.273 18.9903 102.283 18.4805C102.274 17.9727 102.396 17.4711 102.635 17.0241C102.859 16.6064 103.192 16.2591 103.6 16.0208C104.021 15.7788 104.498 15.6549 104.982 15.6622C105.464 15.6543 105.939 15.7783 106.356 16.0208C106.76 16.2575 107.091 16.6026 107.312 17.0175C107.55 17.4676 107.669 17.971 107.66 18.4805L107.649 18.7137ZM103.644 16.8173C103.278 17.1679 103.057 17.6451 103.027 18.1527H106.942C106.913 17.6454 106.693 17.1683 106.328 16.8173C105.957 16.4881 105.479 16.3065 104.985 16.3065C104.49 16.3065 104.012 16.4881 103.642 16.8173H103.644Z" fill="white"/>
<path d="M116.808 16.2804C117.217 16.6852 117.422 17.2719 117.422 18.0405V21.2592H116.676V18.1109C116.707 17.6303 116.55 17.1566 116.239 16.7908C116.077 16.6335 115.883 16.5119 115.672 16.4338C115.46 16.3558 115.235 16.323 115.01 16.3376C114.751 16.3242 114.492 16.3645 114.249 16.4561C114.006 16.5477 113.785 16.6886 113.599 16.87C113.418 17.0684 113.28 17.301 113.19 17.5541C113.101 17.8073 113.063 18.0759 113.078 18.3441V21.2592H112.332V15.704H113.047V16.7204C113.249 16.3829 113.542 16.1098 113.892 15.9328C114.282 15.7394 114.713 15.6435 115.147 15.6534C115.452 15.6397 115.756 15.6881 116.041 15.7959C116.327 15.9037 116.587 16.0685 116.808 16.2804Z" fill="white"/>
<path d="M123.433 20.9534C123.009 20.7183 122.658 20.3685 122.42 19.9435C122.173 19.4965 122.048 18.9918 122.057 18.4805C122.049 17.9708 122.176 17.4682 122.425 17.0241C122.664 16.6019 123.014 16.2546 123.438 16.0208C123.887 15.7766 124.392 15.653 124.903 15.6622C125.344 15.6539 125.781 15.7496 126.178 15.9416C126.546 16.1233 126.855 16.4073 127.067 16.76L126.509 17.1407C126.339 16.8752 126.1 16.6614 125.818 16.5224C125.533 16.3835 125.22 16.3127 124.903 16.3156C124.527 16.31 124.156 16.4033 123.827 16.5862C123.51 16.7631 123.25 17.0291 123.081 17.3519C122.906 17.7031 122.814 18.0907 122.814 18.4838C122.814 18.8769 122.906 19.2645 123.081 19.6157C123.252 19.9358 123.511 20.1999 123.827 20.3769C124.156 20.5575 124.526 20.65 124.901 20.6453C125.217 20.6483 125.529 20.5799 125.815 20.4451C126.097 20.3087 126.336 20.0972 126.507 19.8335L127.064 20.2119C126.853 20.5668 126.543 20.8514 126.172 21.0304C125.776 21.2218 125.341 21.3182 124.901 21.312C124.389 21.3204 123.884 21.197 123.433 20.9534Z" fill="white"/>
<path d="M136.385 18.7137H131.765C131.776 18.9793 131.839 19.2401 131.952 19.4804C132.064 19.7208 132.224 19.9359 132.421 20.1129C132.84 20.4762 133.38 20.6664 133.933 20.6453C134.257 20.6489 134.579 20.5861 134.878 20.4605C135.164 20.3383 135.419 20.1525 135.624 19.9171L136.057 20.4033C135.809 20.6999 135.494 20.9317 135.138 21.0788C134.753 21.238 134.34 21.3174 133.924 21.312C133.399 21.3223 132.88 21.1965 132.417 20.9468C131.989 20.7136 131.634 20.3645 131.393 19.9391C131.144 19.4943 131.017 18.9909 131.026 18.4805C131.018 17.9728 131.139 17.4714 131.378 17.0241C131.6 16.6071 131.932 16.26 132.338 16.0208C132.76 15.7858 133.234 15.6625 133.716 15.6625C134.198 15.6625 134.673 15.7858 135.094 16.0208C135.5 16.2578 135.833 16.6027 136.057 17.0175C136.29 17.4687 136.407 17.9719 136.396 18.4805L136.385 18.7137ZM132.38 16.8172C132.015 17.1689 131.796 17.6457 131.765 18.1527H135.683C135.652 17.6457 135.432 17.1689 135.068 16.8172C134.697 16.4884 134.219 16.307 133.724 16.307C133.229 16.307 132.751 16.4884 132.38 16.8172Z" fill="white"/>
<path d="M57.2423 29.8504V31.8305H59.69V32.1209H57.2423V34.1603H56.9076V29.5402H59.97V29.8438L57.2423 29.8504Z" fill="white"/>
<path d="M68.8115 33.8633V34.1669H65.642V29.5468H68.7043V29.8504H65.9766V31.6808H68.4244V31.9779H65.9766V33.8721L68.8115 33.8633Z" fill="white"/>
<path d="M78.9654 34.1669V30.2068L77.0427 33.5465H76.8786L74.9559 30.22V34.1669H74.6278V29.5468H74.91L76.964 33.1175L79.0179 29.5468H79.2935V34.1669H78.9654Z" fill="white"/>
<path d="M89.8369 34.1669V30.2068L87.9142 33.5465H87.7501L85.8274 30.22V34.1669H85.4993V29.5468H85.7814L87.8354 33.1175L89.8894 29.5468H90.165V34.1669H89.8369Z" fill="white"/>
<path d="M99.527 33.8633V34.1669H96.3596V29.5468H99.422V29.8504H96.6943V31.6808H99.142V31.9779H96.6943V33.8721L99.527 33.8633Z" fill="white"/>
</svg>
